<svg xmlns="http://www.w3.org/2000/svg" width="42.16" height="42.16">
    <g data-name="Group 107">
        <path data-name="Path 34" d="M39.227 27.3a15.64 15.64 0 0 1-9.275 9.254L27.3 37.6v2.34h-8.436V37.6l-2.677-1.05a15.64 15.64 0 0 1-9.275-9.25h32.315M44.16 2 6.216 6.195V23.08H2c0 7.779 5.207 14.461 12.648 17.391v3.689h16.864v-3.689c7.441-2.93 12.648-9.612 12.648-17.391H19.918v-8.432H44.16v-3.162H19.918V7.86L44.16 5.183V2zm-29.512 9.486V8.45l2.108-.232v3.267zm-5.27 0V9.041l2.108-.232v2.677zm5.27 11.594v-8.432h2.108v8.432zm-5.27 0v-8.432h2.108v8.432z" transform="translate(-2 -2)" style="fill:#118641"/>
    </g>
</svg>
