<svg id="dollar" xmlns="http://www.w3.org/2000/svg" width="42.568" height="42.568" viewBox="0 0 42.568 42.568">
  <path id="Path_111" data-name="Path 111" d="M21.284,0A21.284,21.284,0,1,0,42.568,21.284,21.308,21.308,0,0,0,21.284,0Zm0,39.021A17.737,17.737,0,1,1,39.021,21.284,17.757,17.757,0,0,1,21.284,39.021Zm0,0" fill="#118641"/>
  <path id="Path_112" data-name="Path 112" d="M144.69,67.374a6.034,6.034,0,0,0-.708-.252V64h-3.547v3.133a6.2,6.2,0,0,0-.636,11.652l3.449,1.4a2.66,2.66,0,1,1-3.7,2.441V80.849l-3.547,0v1.774a6.141,6.141,0,0,0,4.434,5.948v3.8h3.547V88.564c.166-.051.332-.106.495-.171a6.207,6.207,0,0,0,.141-11.485l-3.449-1.4a2.661,2.661,0,1,1,2.113-4.884,2.54,2.54,0,0,1,1.587,2.24v1.774h3.547V72.868A6.044,6.044,0,0,0,144.69,67.374Zm0,0" transform="translate(-120.924 -56.905)" fill="#118641"/>
</svg>
