<svg xmlns="http://www.w3.org/2000/svg" width="57.368" height="35.304" viewBox="0 0 57.368 35.304">
  <g id="level" transform="translate(0 -9.038)">
    <path id="Path_105" data-name="Path 105" d="M28.7,18.87a1.874,1.874,0,0,0-2.295-.01L17.67,25.248A3.163,3.163,0,0,0,16.512,27.8V39.319c0,1.625,1.03,2.942,2.3,2.942h8.739c1.27,0,2.3-1.317,2.3-2.942v-17.9A3.176,3.176,0,0,0,28.7,18.87Z" transform="translate(7.366 2.081)" fill="#d0d0d0"/>
    <path id="Path_106" data-name="Path 106" d="M15.745,28.236a2.925,2.925,0,0,0-2.936-.01L1.483,34.7a2.941,2.941,0,0,0,1.459,5.5H14.269a2.942,2.942,0,0,0,2.942-2.942V30.779A2.936,2.936,0,0,0,15.745,28.236Z" transform="translate(0 4.147)" fill="#118641"/>
    <path id="Path_107" data-name="Path 107" d="M44.7,9.436a1.736,1.736,0,0,0-2.2-.009L34.012,15.9A3.221,3.221,0,0,0,32.9,18.454V41.4c0,1.625.987,2.942,2.2,2.942h8.489c1.218,0,2.2-1.317,2.2-2.942V11.981A3.225,3.225,0,0,0,44.7,9.436Z" transform="translate(11.57)" fill="#d0d0d0"/>
  </g>
</svg>
