<svg id="food" xmlns="http://www.w3.org/2000/svg" width="86.945" height="86.945">
    <defs>
        <style>
            .cls-1{fill:#d0d0d0}
        </style>
    </defs>
    <path id="Path_100" data-name="Path 100" class="cls-1" d="M42.094 186.651a7.645 7.645 0 0 1-3.853-6.632 21.251 21.251 0 0 1 21.227-21.227h8.747l.412-6.792H19.063l3.56 58.74a2.547 2.547 0 0 0 2.543 2.393h15.63a12.669 12.669 0 0 1-2.554-7.642 7.654 7.654 0 0 1 5.047-7.187 10.154 10.154 0 0 1 0-11.1c-.829-.19-1.289-.374-1.195-.553zm0 0" transform="translate(-15.825 -126.188)"/>
    <path id="Path_101" data-name="Path 101" class="cls-1" d="M28.017 20.718h25.474a2.547 2.547 0 0 0 0-5.094H32.722l6.866-10.53H48.4A2.547 2.547 0 0 0 48.4 0H38.208a2.545 2.545 0 0 0-2.133 1.156L26.64 15.623H2.547a2.547 2.547 0 1 0 0 5.094h25.47zm0 0"/>
    <path id="Path_102" data-name="Path 102" class="cls-1" d="M162 238.132a2.547 2.547 0 0 0 2.547 2.547h54.341a2.547 2.547 0 0 0 2.547-2.547A16.151 16.151 0 0 0 205.3 222h-27.17A16.151 16.151 0 0 0 162 238.132zm0 0" transform="translate(-134.49 -184.301)"/>
    <path id="Path_103" data-name="Path 103" class="cls-1" d="M187.094 362a5.094 5.094 0 0 0 0 10.189h42.454a5.094 5.094 0 1 0 0-10.189zm0 0" transform="translate(-151.094 -300.527)"/>
    <path id="Path_104" data-name="Path 104" class="cls-1" d="M218.888 452h-54.341a2.547 2.547 0 0 0-2.547 2.547 7.65 7.65 0 0 0 7.642 7.642h44.152a7.65 7.65 0 0 0 7.642-7.642 2.547 2.547 0 0 0-2.548-2.547zm0 0" transform="translate(-134.49 -375.244)"/>
</svg>
