<svg xmlns="http://www.w3.org/2000/svg" width="32.41" height="32.41" viewBox="0 0 32.41 32.41">
    <path fill="none" d="M0 0h32.41v32.41H0z"/>
    <path fill="#fff" d="M7.78 5.7a16.627 16.627 0 0 0 .608 3.5l-1.62 1.619A20.021 20.021 0 0 1 5.741 5.7H7.78M21.1 21.933a17.222 17.222 0 0 0 3.511.608v2.012a20.832 20.832 0 0 1-5.132-1.013l1.621-1.607M9.077 3H4.35A1.354 1.354 0 0 0 3 4.35a22.955 22.955 0 0 0 22.957 22.957 1.354 1.354 0 0 0 1.35-1.35v-4.713a1.354 1.354 0 0 0-1.35-1.35 15.4 15.4 0 0 1-4.821-.77 1.134 1.134 0 0 0-.419-.068 1.383 1.383 0 0 0-.959.392l-2.971 2.971a20.457 20.457 0 0 1-8.9-8.9l2.971-2.971a1.355 1.355 0 0 0 .342-1.377 15.341 15.341 0 0 1-.77-4.821A1.354 1.354 0 0 0 9.077 3z" transform="translate(1.051 1.051)"/>
</svg>
