<svg xmlns="http://www.w3.org/2000/svg" width="56.205" height="56.205">
    <path data-name="Path 15" d="M0 0h56.2v56.2H0z" style="fill:none"/>
    <path data-name="Path 16" d="M11.29 7.684a28.834 28.834 0 0 0 1.054 6.065l-2.81 2.81a34.719 34.719 0 0 1-1.78-8.876h3.536m23.091 28.15a29.865 29.865 0 0 0 6.089 1.054v3.489a36.127 36.127 0 0 1-8.9-1.756l2.81-2.787M13.538 3h-8.2A2.349 2.349 0 0 0 3 5.342a39.808 39.808 0 0 0 39.812 39.812 2.349 2.349 0 0 0 2.342-2.342v-8.173a2.349 2.349 0 0 0-2.342-2.339 26.714 26.714 0 0 1-8.36-1.335 1.966 1.966 0 0 0-.726-.117 2.4 2.4 0 0 0-1.663.679l-5.153 5.149a35.476 35.476 0 0 1-15.432-15.433l5.152-5.152a2.35 2.35 0 0 0 .585-2.389 26.6 26.6 0 0 1-1.335-8.36A2.349 2.349 0 0 0 13.538 3z" transform="translate(4.026 4.026)" style="fill:#4b4b4b"/>
</svg>
