<svg xmlns="http://www.w3.org/2000/svg" width="40.92" height="40.92">
    <path data-name="Path 73" d="M22.46 2a20.46 20.46 0 1 0 20.46 20.46A20.467 20.467 0 0 0 22.46 2zm-2.046 36.685A16.344 16.344 0 0 1 6.092 22.46a16.609 16.609 0 0 1 .43-3.662l9.8 9.8v2.046a4.1 4.1 0 0 0 4.092 4.092zm14.117-5.2a4.059 4.059 0 0 0-3.887-2.844H28.6v-6.135a2.052 2.052 0 0 0-2.046-2.046H14.276v-4.092h4.092a2.052 2.052 0 0 0 2.046-2.046V12.23h4.092A4.1 4.1 0 0 0 28.6 8.138V7.3a16.331 16.331 0 0 1 5.933 26.189z" style="fill:#118641" transform="translate(-2 -2)"/>
</svg>
